<svg width="115" height="36" viewBox="0 0 115 36" fill="none" xmlns="http://www.w3.org/2000/svg">
<path d="M34.4232 10.2705C34.535 10.3477 34.6688 10.3731 34.7945 10.3512C34.9201 10.3293 35.0377 10.2612 35.1184 10.1517C35.2787 9.93266 35.2268 9.62943 35.0031 9.47609L33.087 8.15943C32.8633 8.00494 32.552 8.05913 32.3929 8.27819C32.2326 8.4984 32.2845 8.80047 32.5082 8.95381L34.4232 10.2705Z" fill="#1D9DF4"/>
<path d="M29.604 13.5297C29.6489 13.7938 29.9049 13.9702 30.177 13.924L32.6328 13.5044C32.9048 13.4583 33.087 13.2058 33.0421 12.9429C32.9971 12.6789 32.7411 12.5025 32.469 12.5486L30.0133 12.9683C29.7412 13.0144 29.559 13.2657 29.604 13.5297Z" fill="#1D9DF4"/>
<path d="M28.5398 7.31652C28.5847 7.58054 28.8407 7.75694 29.1128 7.71082C29.3849 7.66471 29.567 7.41221 29.5221 7.14819C29.7942 7.10207 29.9763 6.84958 29.9313 6.58671C29.8864 6.32269 29.6304 6.14629 29.3583 6.1924C29.3134 5.92838 29.0574 5.75198 28.7853 5.7981C28.5132 5.84422 28.3311 6.09671 28.376 6.35958C28.1051 6.4057 27.9218 6.65819 27.9667 6.92221C28.0117 7.18624 28.2677 7.36264 28.5398 7.31652Z" fill="#1D9DF4"/>
<path d="M44.0955 6.62243C44.1404 6.88645 44.3964 7.06285 44.6685 7.01673C44.9406 6.97061 45.1227 6.71812 45.0778 6.45525C45.3499 6.40913 45.532 6.15664 45.4871 5.89262C45.4421 5.62859 45.1861 5.45219 44.9141 5.49831C44.8691 5.23429 44.6131 5.05789 44.341 5.10401C44.0701 5.15012 43.8868 5.40262 43.9317 5.66664C43.6596 5.71276 43.4775 5.96525 43.5224 6.22812C43.5674 6.49214 43.8234 6.66854 44.0955 6.62243Z" fill="#1D9DF4"/>
<path d="M45.9031 18.3988C45.948 18.6628 46.204 18.8392 46.4761 18.7931C46.7482 18.747 46.9303 18.4945 46.8854 18.2316C47.1575 18.1855 47.3396 17.933 47.2947 17.669C47.2497 17.405 46.9938 17.2286 46.7217 17.2747C46.6767 17.0107 46.4207 16.8343 46.1486 16.8804C45.8777 16.9265 45.6944 17.179 45.7394 17.443C45.4673 17.4891 45.2851 17.7416 45.3301 18.0045C45.375 18.2685 45.631 18.4461 45.9031 18.3988Z" fill="#1D9DF4"/>
<path d="M40.3519 9.39996C40.4776 9.37806 40.5952 9.31003 40.6759 9.20051L42.0444 7.32121C42.2047 7.101 42.1528 6.79893 41.9291 6.64559C41.7055 6.4911 41.3942 6.54413 41.2351 6.76434L39.8665 8.64364C39.7063 8.86269 39.7582 9.16592 39.9818 9.31926C40.0937 9.3965 40.2263 9.42187 40.3519 9.39996Z" fill="#1D9DF4"/>
<path d="M37.3815 8.75544C37.6524 8.70932 37.8358 8.45682 37.7908 8.19395L37.1371 4.36965C37.0921 4.10563 36.8362 3.92923 36.5641 3.97534C36.292 4.02146 36.1098 4.27396 36.1548 4.53798L36.8085 8.36228C36.8534 8.62515 37.1094 8.80155 37.3815 8.75544Z" fill="#1D9DF4"/>
<path d="M41.4849 13.9321C41.2613 13.7788 40.95 13.8318 40.7909 14.0509C40.6306 14.2699 40.6825 14.5732 40.9061 14.7265L42.8223 16.0443C42.9342 16.1216 43.0679 16.1469 43.1936 16.125C43.3193 16.1031 43.4369 16.0351 43.5164 15.9256C43.6767 15.7053 43.6248 15.4033 43.4011 15.2499L41.4849 13.9321Z" fill="#1D9DF4"/>
<path d="M45.7327 10.2786L41.8023 10.9507C41.5314 10.9969 41.348 11.2493 41.393 11.5134C41.438 11.7774 41.6951 11.9538 41.966 11.9065L45.8964 11.2344C46.1685 11.1882 46.3507 10.9357 46.3057 10.6729C46.2607 10.4088 46.0036 10.2324 45.7327 10.2786Z" fill="#1D9DF4"/>
<path d="M38.7721 16.8814C38.5 16.9276 38.3178 17.18 38.3628 17.4429L38.7721 19.833C38.817 20.097 39.073 20.2734 39.3451 20.2273C39.616 20.1811 39.7993 19.9287 39.7544 19.6658L39.3451 17.2757C39.3001 17.0106 39.043 16.8342 38.7721 16.8814Z" fill="#1D9DF4"/>
<path d="M39.4673 1.17605C39.4223 0.912023 39.1663 0.735623 38.8943 0.78174C38.6222 0.827858 38.44 1.08035 38.485 1.34438C38.2129 1.39049 38.0307 1.64299 38.0757 1.90586C38.1206 2.16988 38.3766 2.34628 38.6487 2.30016C38.6936 2.56419 38.9496 2.74059 39.2217 2.69447C39.4938 2.64835 39.6759 2.39586 39.631 2.13299C39.9031 2.08687 40.0852 1.83437 40.0403 1.57035C39.9953 1.30518 39.7394 1.12878 39.4673 1.17605Z" fill="#1D9DF4"/>
<path d="M17.9395 10.1747L26.5796 21.6453L27.8029 19.9436L20.4321 10.1609L17.9395 10.1747Z" fill="#1D9DF4"/>
<path d="M32.6624 26.0068L31.3677 27.787L37.5797 35.9602H40.1023L32.6624 26.0068Z" fill="#1D9DF4"/>
<path d="M7.36493 10.2646C10.9102 10.2646 13.9378 11.519 16.4466 14.0267C18.9543 16.5355 20.2087 19.562 20.2087 23.1084C20.2087 26.6548 18.9543 29.6813 16.4466 32.1901C13.9378 34.6989 10.9114 35.9522 7.36493 35.9522H4.78235C3.59597 35.9522 2.58138 35.5302 1.73858 34.6862C0.894633 33.8423 0.472656 32.8277 0.472656 31.6425V14.5743C0.472656 13.3776 0.894633 12.3572 1.73858 11.5133C2.58254 10.6809 3.59712 10.2646 4.78235 10.2646H7.36493ZM3.63632 31.6425C3.63632 31.9618 3.7447 32.2351 3.96145 32.4634C4.18973 32.6801 4.46298 32.7885 4.78235 32.7885H7.36493C10.0444 32.7885 12.3306 31.8477 14.2226 29.9661C16.1146 28.0741 17.0612 25.7878 17.0612 23.1084C17.0612 20.429 16.1146 18.1427 14.2226 16.2507C12.3295 14.3576 10.0432 13.4122 7.36493 13.4122H4.78235C4.46298 13.4122 4.18973 13.5263 3.96145 13.7546C3.7447 13.9829 3.63632 14.2561 3.63632 14.5755V31.6425Z" fill="#1D9DF4"/>
<path d="M39.9193 11.7646C39.8317 11.2539 39.5457 10.8089 39.1122 10.5114C38.2199 9.89688 36.9712 10.1113 36.3337 10.9864L32.1808 16.6854C32.0205 16.9056 32.0724 17.2077 32.2961 17.361C32.5197 17.5155 32.831 17.4613 32.9901 17.2423L37.143 11.5421C37.4624 11.104 38.0861 10.9979 38.5323 11.3046C38.7491 11.4534 38.892 11.677 38.9358 11.9318C38.9797 12.1866 38.9185 12.4449 38.7641 12.657L33.728 19.57L31.6596 18.1496C31.4406 18.0297 31.1593 18.0874 31.0094 18.2926L20.3631 32.905C20.053 33.3292 19.9319 33.8446 20.0184 34.3553C20.106 34.8661 20.392 35.3111 20.8255 35.6086C21.2716 35.9153 21.8078 36.0156 22.3104 35.9291C22.8131 35.8426 23.2847 35.5705 23.604 35.1324L39.5734 13.2127C39.8836 12.7908 40.0058 12.2754 39.9193 11.7646Z" fill="#1D9DF4"/>
<path d="M44.9625 29.5801C44.9625 30.4471 45.268 31.185 45.8779 31.796C46.4878 32.4059 47.2269 32.7115 48.0939 32.7115C48.9609 32.7115 49.6988 32.4059 50.3098 31.796C50.9209 31.1861 51.2253 30.4471 51.2253 29.5801V22.297C51.2253 21.8554 51.3844 21.4749 51.7026 21.1555C52.0208 20.8373 52.4013 20.6782 52.844 20.6782H52.8705C53.3213 20.6782 53.6972 20.8373 53.9981 21.1555C54.3163 21.4738 54.4754 21.8542 54.4754 22.297V29.5801C54.4754 30.4471 54.7809 31.185 55.3908 31.796C56.0007 32.4071 56.7398 32.7115 57.6068 32.7115C58.4819 32.7115 59.2255 32.4059 59.8354 31.796C60.4453 31.1861 60.7508 30.4471 60.7508 29.5801V22.297C60.7508 21.8554 60.9099 21.4749 61.2282 21.1555C61.5291 20.8373 61.9049 20.6782 62.3557 20.6782H62.3822C62.8238 20.6782 63.2043 20.8373 63.5237 21.1555C63.8326 21.4738 63.9883 21.8542 63.9883 22.297V29.5801C63.9883 31.3406 63.3646 32.844 62.1182 34.0904C60.8708 35.3379 59.3673 35.9604 57.6079 35.9604C55.5027 35.9604 53.9197 35.2618 52.859 33.8644C51.7891 35.2618 50.2015 35.9604 48.0962 35.9604C46.3356 35.9604 44.8322 35.3367 43.5859 34.0904C42.3384 32.8429 41.7158 31.3395 41.7158 29.5801V22.297C41.7158 21.8554 41.8749 21.4749 42.1931 21.1555C42.5113 20.8373 42.8872 20.6782 43.3207 20.6782H43.3611C43.7946 20.6782 44.1704 20.8373 44.4886 21.1555C44.8069 21.4738 44.966 21.8542 44.966 22.297V29.5801H44.9625Z" fill="#1D9DF4"/>
<path d="M79.6801 22.9206C81.1743 24.4148 81.9225 26.2157 81.9225 28.3198V34.3555C81.9225 34.8063 81.7634 35.1821 81.4452 35.4831C81.127 35.8013 80.7511 35.9604 80.3176 35.9604H80.2773C79.8438 35.9604 79.4679 35.8013 79.1497 35.4831C78.8315 35.1821 78.6724 34.8063 78.6724 34.3555C77.6636 35.4254 76.2005 35.9604 74.2808 35.9604C72.1756 35.9604 70.3758 35.2133 68.8816 33.7179C67.3874 32.2237 66.6392 30.424 66.6392 28.3187C66.6392 26.2146 67.3863 24.4137 68.8816 22.9195C70.3758 21.4253 72.1756 20.677 74.2808 20.677C76.385 20.6782 78.1847 21.4253 79.6801 22.9206ZM71.1633 25.215C70.3147 26.0728 69.8893 27.1081 69.8893 28.3187C69.8893 29.5397 70.3136 30.5784 71.1633 31.4362C72.0211 32.2848 73.0599 32.7102 74.2808 32.7102C75.5018 32.7102 76.536 32.286 77.3846 31.4362C78.2423 30.5784 78.6712 29.5397 78.6712 28.3187C78.6712 27.1069 78.2423 26.0728 77.3846 25.215C76.5268 24.3572 75.4914 23.9283 74.2808 23.9283C73.0599 23.9283 72.0211 24.3572 71.1633 25.215Z" fill="#1D9DF4"/>
<path d="M87.8252 34.3555C87.8252 34.8063 87.6661 35.1822 87.3478 35.4831C87.0296 35.8013 86.6538 35.9604 86.2203 35.9604H86.1811C85.7476 35.9604 85.3717 35.8013 85.0535 35.4831C84.7353 35.1822 84.5762 34.8063 84.5762 34.3555V27.0989C84.5762 25.3303 85.2045 23.8177 86.4601 22.5621C87.7156 21.3066 89.2283 20.6782 90.9969 20.6782C92.7563 20.6782 94.2643 21.3066 95.521 22.5621C96.7766 23.8177 97.4049 25.3303 97.4049 27.0989V34.3555C97.4049 34.8063 97.2458 35.1822 96.9276 35.4831C96.6267 35.8013 96.2509 35.9604 95.8001 35.9604H95.7735C95.3308 35.9604 94.9515 35.8013 94.6321 35.4831C94.3139 35.1822 94.1548 34.8063 94.1548 34.3555V27.0989C94.1548 26.2239 93.8493 25.4756 93.2394 24.8565C92.6202 24.2373 91.8731 23.9284 90.9969 23.9284C90.1126 23.9284 89.3609 24.2385 88.7417 24.8565C88.1318 25.4756 87.8263 26.2227 87.8263 27.0989V34.3555H87.8252Z" fill="#1D9DF4"/>
<path d="M113.335 15.2397C113.769 15.2397 114.145 15.3942 114.463 15.7043C114.781 16.0225 114.94 16.403 114.94 16.8457V28.3601C114.931 30.4654 114.179 32.2559 112.685 33.7328C111.191 35.219 109.394 35.9615 107.298 35.9615C105.193 35.9615 103.393 35.2144 101.899 33.719C100.405 32.2248 99.6567 30.4251 99.6567 28.3198C99.6567 26.2157 100.404 24.4148 101.899 22.9206C103.393 21.4264 105.193 20.6781 107.298 20.6781C109.217 20.6781 110.681 21.1208 111.69 22.0051V16.8446C111.69 16.403 111.849 16.0225 112.167 15.7032C112.486 15.3942 112.861 15.2385 113.295 15.2385H113.335V15.2397ZM104.182 25.2414C103.333 26.0992 102.908 27.138 102.908 28.359C102.908 29.5707 103.332 30.6049 104.182 31.4627C105.04 32.3205 106.079 32.7494 107.3 32.7494C108.511 32.7494 109.546 32.3205 110.403 31.4627C111.261 30.6049 111.69 29.5707 111.69 28.359C111.69 27.138 111.261 26.0992 110.403 25.2414C109.546 24.3836 108.51 23.9548 107.3 23.9548C106.079 23.9548 105.039 24.3836 104.182 25.2414Z" fill="#1D9DF4"/>
</svg>
