<svg width="660" height="416" viewBox="0 0 660 416" fill="none" xmlns="http://www.w3.org/2000/svg">
<g opacity="0.5">
<mask id="mask0" mask-type="alpha" maskUnits="userSpaceOnUse" x="0" y="0" width="660" height="416">
<rect y="0.5" width="660" height="415.083" rx="5" fill="#1D9DF4"/>
</mask>
<g mask="url(#mask0)">
<path d="M-1.03809 165.378C20.4329 150.859 70.9698 122.514 101.35 125.286C139.324 128.751 179.222 158.944 298.915 158.944C418.607 158.944 441.2 67.8716 507.055 61.932C572.91 55.9925 650.782 48.5681 662.799 21.8403" stroke="white" stroke-width="2"/>
<path d="M101.268 125.016C70.8884 122.244 18.5501 151.78 -2.9209 166.299V342.504H660.917V22.7615C648.899 49.4893 571.027 56.9137 505.172 62.8532C439.317 68.7927 416.716 161.295 297.032 159.865C176.502 158.426 139.243 128.481 101.268 125.016Z" fill="url(#paint0_linear)"/>
<circle cx="87.6568" cy="124.792" r="7.90923" fill="#1D9DF4" stroke="white" stroke-width="2"/>
<circle cx="410.37" cy="122.812" r="7.90923" fill="#1D9DF4" stroke="white" stroke-width="2"/>
<circle cx="514.238" cy="60.6944" r="7.90923" fill="#1D9DF4" stroke="white" stroke-width="2"/>
</g>
</g>
<defs>
<linearGradient id="paint0_linear" x1="328.998" y1="22.7615" x2="328.998" y2="342.504" gradientUnits="userSpaceOnUse">
<stop stop-color="white"/>
<stop offset="1" stop-color="white" stop-opacity="0"/>
</linearGradient>
</defs>
</svg>
