<svg width="33" height="33" viewBox="0 0 33 33" fill="none" xmlns="http://www.w3.org/2000/svg">
<path fill-rule="evenodd" clip-rule="evenodd" d="M17.8852 32.5H2.55912C1.58342 32.5 0.792969 31.7091 0.792969 30.7337V2.26614C0.792969 1.29057 1.58354 0.5 2.55912 0.5H31.0269C32.0023 0.5 32.793 1.29057 32.793 2.26614V30.7337C32.793 31.7092 32.0021 32.5 31.0269 32.5H22.8725V20.1078H27.032L27.6548 15.2784H22.8725V12.1951C22.8725 10.7969 23.2608 9.844 25.2658 9.844L27.8232 9.84289V5.5234C27.3809 5.46454 25.8628 5.33305 24.0967 5.33305C20.4095 5.33305 17.8852 7.58368 17.8852 11.7168V15.2784H13.715V20.1078H17.8852V32.5Z" fill="#4460A0"/>
</svg>
