<svg width="58" height="44" viewBox="0 0 58 44" fill="none" xmlns="http://www.w3.org/2000/svg">
<path fill-rule="evenodd" clip-rule="evenodd" d="M43.3287 15.3069L43.4868 16.8795L45.0533 17.0893C50.9504 17.8789 55.4996 22.9334 55.4996 29.0471C55.4996 35.7105 50.0977 41.1124 43.4343 41.1124H37.7206L37.7206 43.1124H43.4343C51.2023 43.1124 57.4996 36.8151 57.4996 29.0471C57.4996 21.918 52.1957 16.0278 45.3187 15.107C44.4778 6.73877 37.4138 0.206055 28.824 0.206055C21.4337 0.206055 15.1728 5.04171 13.0328 11.7215C5.7033 13.1081 0.160156 19.5461 0.160156 27.2788C0.160156 36.0235 7.24912 43.1124 15.9938 43.1124C16.1216 43.1124 16.2491 43.1109 16.3762 43.1079C16.4948 43.1109 16.6137 43.1124 16.733 43.1124H20.5181L20.5181 41.1124H16.733C16.6304 41.1124 16.528 41.1111 16.426 41.1085L16.3774 41.1073L16.3288 41.1085C16.2175 41.1111 16.1058 41.1124 15.9938 41.1124C8.35369 41.1124 2.16016 34.9189 2.16016 27.2788C2.16016 20.525 7.00199 14.8979 13.4045 13.6867L14.5742 13.4654L14.9374 12.3317C16.8199 6.45578 22.3283 2.20605 28.824 2.20605C36.3763 2.20605 42.5894 7.9504 43.3287 15.3069Z" fill="#1D9DF4"/>
<path d="M30.1182 19.3481C29.7277 18.9575 29.0945 18.9575 28.704 19.3481L22.3401 25.712C21.9495 26.1025 21.9495 26.7357 22.3401 27.1262C22.7306 27.5168 23.3638 27.5168 23.7543 27.1262L29.4111 21.4694L35.068 27.1262C35.4585 27.5168 36.0917 27.5168 36.4822 27.1262C36.8727 26.7357 36.8727 26.1025 36.4822 25.712L30.1182 19.3481ZM30.4111 43.1123L30.4111 20.0552L28.4111 20.0552L28.4111 43.1123L30.4111 43.1123Z" fill="#1D9DF4"/>
</svg>
