<svg width="33" height="37" viewBox="0 0 33 37" fill="none" xmlns="http://www.w3.org/2000/svg">
<g clip-path="url(#clip0)">
<path fill-rule="evenodd" clip-rule="evenodd" d="M24.3212 6.16589C24.9225 6.75456 25.604 7.42131 25.604 7.42131C25.604 7.42131 28.4098 7.62603 28.5422 7.63728C28.6757 7.64853 28.8366 7.74867 28.8617 7.92979C28.8868 8.11092 32.8474 34.5135 32.8474 34.5135L23.1286 36.5862L24.3212 6.16589ZM22.8303 5.16582C22.7559 5.17528 22.6913 5.1897 22.6463 5.2028C22.6224 5.20955 22.2207 5.33218 21.5555 5.53468C20.904 3.68743 19.7549 1.98981 17.7341 1.98981C17.6782 1.98981 17.62 1.99206 17.5629 1.99544C16.9879 1.24619 16.2758 0.919922 15.6608 0.919922C10.9517 0.919922 8.70153 6.72493 7.99636 9.67355C6.16611 10.2327 4.86645 10.6298 4.701 10.6815C3.67862 10.9977 3.64667 11.0292 3.51316 11.9776C3.41161 12.6964 0.739258 33.0736 0.739258 33.0736L21.5635 36.9199L21.5856 36.9152L22.8303 5.16582ZM17.4089 6.59894C17.4089 6.66981 17.4078 6.73506 17.4078 6.80031C16.261 7.15018 15.0161 7.53043 13.7678 7.9118C14.4684 5.24555 15.7818 3.95741 16.9308 3.47141C17.2195 4.1869 17.4089 5.21406 17.4089 6.59894ZM15.5307 2.16531C15.735 2.16531 15.9392 2.23393 16.1355 2.36668C14.6259 3.06643 13.009 4.83042 12.3255 8.35167C11.3271 8.65654 10.3515 8.95468 9.44892 9.2303C10.2488 6.5438 12.1487 2.16531 15.5307 2.16531ZM16.342 17.8647C16.342 17.8647 15.1234 17.2234 13.6297 17.2234C11.4389 17.2234 11.3282 18.579 11.3282 18.9199C11.3282 20.784 16.2553 21.4984 16.2553 25.8634C16.2553 29.2969 14.0462 31.5087 11.0669 31.5087C7.49201 31.5087 5.66404 29.3149 5.66404 29.3149L6.62139 26.1975C6.62139 26.1975 8.5007 27.7883 10.0868 27.7883C11.1217 27.7883 11.5439 26.9839 11.5439 26.3967C11.5439 23.9655 7.50114 23.8564 7.50114 19.8615C7.50114 16.5 9.9487 13.2465 14.8895 13.2465C16.7927 13.2465 17.7341 13.7843 17.7341 13.7843L16.342 17.8647ZM18.6424 6.42343C18.6424 6.30081 18.6435 6.18042 18.6435 6.0488C18.6435 4.9013 18.4815 3.97655 18.2225 3.24417C19.2643 3.37242 19.958 4.54128 20.4042 5.88565C19.8816 6.0454 19.2871 6.22656 18.6424 6.42343Z" fill="#81BF37"/>
</g>
<defs>
<clipPath id="clip0">
<rect width="32.1081" height="36" fill="white" transform="translate(0.739258 0.919922)"/>
</clipPath>
</defs>
</svg>
